<svg xmlns="http://www.w3.org/2000/svg" version="1.1" xmlns:xlink="http://www.w3.org/1999/xlink" xmlns:svgjs="http://svgjs.dev/svgjs" width="1000" height="1000" viewBox="0 0 1000 1000"><rect width="1000" height="1000" fill="#ffffff"></rect><g transform="matrix(0.7,0,0,0.7,150,150)"><svg viewBox="0 0 280 280" data-background-color="#ffffff" preserveAspectRatio="xMidYMid meet" height="1000" width="1000" xmlns="http://www.w3.org/2000/svg" xmlns:xlink="http://www.w3.org/1999/xlink"><g id="tight-bounds" transform="matrix(1,0,0,1,0,0)"><svg viewBox="0 0 280 280" height="280" width="280"><g><svg viewBox="0 0 280 280" height="280" width="280"><g><svg viewBox="0 0 280 280" height="280" width="280"><g id="textblocktransform"><svg viewBox="0 0 280 280" height="280" width="280" id="textblock"><g><svg viewBox="0 0 280 280" height="280" width="280"><g transform="matrix(1,0,0,1,90.50252531694167,110.41096667585234)"><svg viewBox="0 0 98.99494936611666 59.178066648295335" height="59.178066648295335" width="98.99494936611666"><g><svg xmlns="http://www.w3.org/2000/svg" xmlns:xlink="http://www.w3.org/1999/xlink" version="1.1" x="0" y="0" viewBox="12.21299934387207 30.911998748779297 74.16500091552734 44.33500289916992" enable-background="new 0 0 100 100" xml:space="preserve" height="59.178066648295335" width="98.99494936611666" class="icon-o-0" data-fill-palette-color="accent" id="o-0"><path d="M71.066 48.876c4.627-0.368 8.283-4.243 8.283-8.964 0-4.963-4.039-9-9-9-4.963 0-9 4.037-9 9 0 1.982 0.65 3.812 1.742 5.3-4.268-1.423-8.92-2.215-13.795-2.215-4.874 0-9.527 0.791-13.794 2.215 1.09-1.488 1.742-3.317 1.742-5.3 0-4.963-4.038-9-9-9s-9 4.037-9 9c0 4.721 3.655 8.596 8.282 8.964-9.271 5.595-15.313 14.656-15.313 24.871v1.5h74.165v-1.5C86.379 63.532 80.338 54.471 71.066 48.876zM75.363 39.12c0 1.299-1.057 2.355-2.355 2.355-1.301 0-2.357-1.057-2.357-2.355 0-1.3 1.057-2.356 2.357-2.356C74.307 36.764 75.363 37.82 75.363 39.12zM70.35 33.912c0.379 0 0.748 0.039 1.109 0.107-2.195 0.669-3.809 2.689-3.809 5.101 0 2.953 2.404 5.355 5.357 5.355 0.52 0 1.012-0.098 1.486-0.236-1.078 1.033-2.537 1.673-4.145 1.673-3.309 0-6-2.691-6-6S67.041 33.912 70.35 33.912zM34.245 39.912c0 3.309-2.691 6-6 6-1.608 0-3.067-0.64-4.146-1.673 0.475 0.139 0.968 0.236 1.487 0.236 2.953 0 5.356-2.402 5.356-5.355 0-2.411-1.612-4.432-3.807-5.101 0.36-0.068 0.73-0.107 1.109-0.107C31.554 33.912 34.245 36.604 34.245 39.912zM23.231 39.12c0-1.3 1.057-2.356 2.356-2.356s2.356 1.057 2.356 2.356c0 1.299-1.057 2.355-2.356 2.355S23.231 40.419 23.231 39.12zM49.297 45.997c13.443 0 25.088 6.374 30.631 15.604-31.684-5.667-53.134-2.139-61.082-0.295C24.458 52.236 35.996 45.997 49.297 45.997zM15.263 72.247c0.168-2.565 0.776-5.037 1.747-7.373 4.12-1.146 27.792-6.895 64.609 0.089 0.949 2.31 1.545 4.751 1.711 7.284H15.263zM36.922 51.047c0-0.828 0.671-1.5 1.5-1.5h5.75c0.829 0 1.5 0.672 1.5 1.5s-0.671 1.5-1.5 1.5h-5.75C37.593 52.547 36.922 51.875 36.922 51.047zM52.922 51.047c0-0.828 0.672-1.5 1.5-1.5h5.75c0.828 0 1.5 0.672 1.5 1.5s-0.672 1.5-1.5 1.5h-5.75C53.594 52.547 52.922 51.875 52.922 51.047z" fill="#000000" data-fill-palette-color="accent"></path></svg></g></svg></g><g><path d="M26.593 104.538l-18.401-6.27-2.457 7.212-2.609-0.889 5.922-17.38 2.609 0.889-2.454 7.202 18.401 6.27z" fill="#000000" data-fill-palette-color="primary"></path><path d="M37.284 81.842c-1.1 1.949-2.52 3.464-4.26 4.546-1.74 1.082-3.617 1.642-5.633 1.68-2.009 0.042-3.944-0.463-5.804-1.513v0c-1.86-1.05-3.295-2.448-4.303-4.193-1.003-1.742-1.49-3.637-1.463-5.685 0.027-2.048 0.591-4.047 1.691-5.996v0c1.093-1.937 2.51-3.446 4.249-4.528 1.74-1.082 3.608-1.639 5.605-1.672 2-0.039 3.939 0.471 5.817 1.531v0c1.878 1.06 3.317 2.456 4.317 4.189 1.003 1.727 1.491 3.614 1.464 5.663-0.027 2.048-0.587 4.041-1.68 5.978zM34.821 80.452c0.8-1.417 1.198-2.875 1.195-4.372-0.004-1.497-0.384-2.892-1.143-4.184-0.767-1.29-1.851-2.33-3.25-3.12v0c-1.4-0.79-2.85-1.18-4.35-1.171-1.498 0.019-2.892 0.412-4.182 1.179-1.284 0.771-2.326 1.864-3.126 3.282v0c-0.8 1.417-1.202 2.881-1.204 4.39 0 1.518 0.378 2.924 1.136 4.216 0.764 1.296 1.846 2.338 3.245 3.128v0c1.4 0.79 2.851 1.177 4.356 1.162 1.498-0.019 2.894-0.422 4.187-1.21 1.29-0.782 2.336-1.882 3.136-3.3z" fill="#000000" data-fill-palette-color="primary"></path><path d="M57.697 55.12l-5.747-1.945-7.96 8.711 2.453 5.549-2.202 2.411-9.606-22.392 2.12-2.321 23.186 7.531zM42.868 59.359l6.464-7.074-11.259-3.798z" fill="#000000" data-fill-palette-color="primary"></path><path d="M63.498 49.92l-13.151-17.881 7.539-5.545c1.89-1.39 3.843-2.249 5.857-2.578 2.015-0.328 3.924-0.112 5.73 0.648 1.805 0.76 3.352 2.017 4.642 3.771v0c1.29 1.754 2.029 3.605 2.216 5.555 0.188 1.95-0.175 3.837-1.088 5.662-0.914 1.825-2.316 3.433-4.206 4.823v0zM64.421 45.819l4.827-3.55c1.448-1.065 2.514-2.282 3.198-3.653 0.684-1.37 0.952-2.78 0.804-4.228-0.146-1.458-0.708-2.851-1.684-4.179v0c-0.976-1.328-2.139-2.278-3.487-2.852-1.339-0.573-2.764-0.737-4.276-0.492-1.512 0.245-2.992 0.9-4.439 1.964v0l-4.827 3.55z" fill="#000000" data-fill-palette-color="primary"></path><path d="M105.322 27.723c-2.103 0.704-4.159 0.874-6.169 0.509-2.003-0.366-3.761-1.205-5.273-2.515-1.505-1.313-2.6-2.992-3.284-5.037v0c-0.684-2.045-0.821-4.045-0.409-5.999 0.418-1.956 1.323-3.686 2.715-5.189 1.392-1.503 3.14-2.606 5.242-3.31v0c1.646-0.551 3.244-0.778 4.793-0.681 1.546 0.09 2.98 0.519 4.302 1.284v0l-1.316 2.543c-2.139-1.136-4.393-1.308-6.759-0.516v0c-1.563 0.523-2.86 1.347-3.892 2.472-1.024 1.129-1.687 2.428-1.99 3.895-0.301 1.474-0.196 2.973 0.314 4.497v0c0.51 1.524 1.329 2.784 2.456 3.78 1.125 0.989 2.435 1.624 3.93 1.902 1.502 0.277 3.034 0.154 4.597-0.369v0c2.341-0.783 4.034-2.284 5.08-4.5v0l2.581 1.239c-0.597 1.401-1.488 2.615-2.675 3.641-1.183 1.018-2.597 1.802-4.243 2.354z" fill="#000000" data-fill-palette-color="primary"></path><path d="M137.136 21.635l-3.43 0.444-5.617-6.144c-0.587 0.117-1.048 0.197-1.384 0.24v0l-5.438 0.705 0.868 6.699-3.147 0.407-2.853-22.012 8.585-1.112c2.852-0.37 5.186 0.019 7.003 1.164 1.811 1.153 2.871 2.924 3.181 5.312v0c0.221 1.702-0.012 3.205-0.698 4.511-0.686 1.299-1.768 2.322-3.244 3.067v0zM126.267 13.514c1.991-0.258 3.455-0.885 4.393-1.882 0.938-0.997 1.303-2.292 1.096-3.886v0c-0.206-1.587-0.888-2.74-2.048-3.458-1.159-0.711-2.734-0.938-4.724-0.681v0l-5.347 0.693 1.284 9.907z" fill="#000000" data-fill-palette-color="primary"></path><path d="M152.209 23.091c-2.948-0.222-5.181-1.236-6.698-3.044-1.516-1.814-2.155-4.3-1.918-7.459v0l0.947-12.588 3.155 0.237-0.937 12.457c-0.357 4.741 1.541 7.267 5.693 7.579v0c2.029 0.153 3.625-0.316 4.788-1.405 1.163-1.089 1.835-2.834 2.016-5.234v0l0.937-12.457 3.063 0.231-0.946 12.588c-0.239 3.178-1.243 5.544-3.013 7.098-1.769 1.553-4.132 2.219-7.087 1.997z" fill="#000000" data-fill-palette-color="primary"></path><path d="M190.529 8.997l3.037 0.922-6.444 21.24-2.492-0.756-7.937-19.704-4.805 15.838-3.037-0.922 6.444-21.24 2.492 0.756 7.937 19.704z" fill="#000000" data-fill-palette-color="primary"></path><path d="M202.287 40.031c-1.922-1.106-3.414-2.532-4.475-4.277-1.055-1.742-1.594-3.613-1.616-5.614-0.017-1.997 0.513-3.93 1.589-5.799v0c1.076-1.869 2.481-3.298 4.216-4.287 1.741-0.985 3.635-1.456 5.684-1.412 2.048 0.044 4.033 0.619 5.955 1.726v0c1.505 0.866 2.735 1.91 3.689 3.133 0.959 1.217 1.59 2.574 1.894 4.071v0l-2.775 0.703c-0.57-2.354-1.936-4.154-4.099-5.399v0c-1.428-0.822-2.906-1.246-4.433-1.272-1.524-0.017-2.935 0.349-4.234 1.096-1.302 0.753-2.354 1.826-3.155 3.219v0c-0.802 1.393-1.201 2.841-1.199 4.346 0.006 1.498 0.401 2.899 1.185 4.202 0.789 1.307 1.898 2.372 3.326 3.194v0c2.139 1.231 4.385 1.503 6.738 0.815v0l0.786 2.753c-1.444 0.483-2.944 0.622-4.499 0.415-1.546-0.209-3.072-0.747-4.577-1.613z" fill="#000000" data-fill-palette-color="primary"></path><path d="M240.727 41.555l2.388 2.091-14.624 16.699-2.387-2.091 6.52-7.446-9.588-8.398-6.521 7.446-2.388-2.091 14.623-16.698 2.388 2.091-6.286 7.178 9.589 8.398z" fill="#000000" data-fill-palette-color="primary"></path><path d="M233.575 66.776l17.117-14.13 2.021 2.447-17.117 14.131z" fill="#000000" data-fill-palette-color="primary"></path><path d="M244.16 77.432l6.659 11.094-2.363 1.419-8.293-13.816 19.031-11.423 8.062 13.432-2.363 1.419-6.429-10.711-5.844 3.508 5.728 9.542-2.312 1.387-5.727-9.542z" fill="#000000" data-fill-palette-color="primary"></path><path d="M252.614 102.15c-0.57-1.568-0.878-3.17-0.924-4.806-0.04-1.638 0.174-3.015 0.641-4.129v0l2.733 0.251c-0.431 1.059-0.643 2.29-0.638 3.695 0.006 1.405 0.246 2.761 0.721 4.068v0c0.628 1.727 1.391 2.914 2.291 3.561 0.897 0.641 1.833 0.784 2.808 0.43v0c0.714-0.26 1.208-0.706 1.483-1.34 0.277-0.627 0.413-1.326 0.407-2.096-0.014-0.774-0.099-1.84-0.254-3.199v0c-0.196-1.711-0.281-3.116-0.255-4.215 0.033-1.101 0.316-2.139 0.849-3.112 0.536-0.967 1.47-1.693 2.802-2.177v0c1.109-0.403 2.219-0.475 3.332-0.215 1.105 0.262 2.143 0.892 3.111 1.889 0.969 0.997 1.774 2.379 2.415 4.144v0c0.45 1.236 0.732 2.509 0.847 3.816 0.115 1.308 0.031 2.496-0.252 3.566v0l-2.748-0.116c0.243-1.077 0.328-2.165 0.253-3.264-0.075-1.099-0.286-2.126-0.633-3.081v0c-0.614-1.689-1.38-2.843-2.298-3.462-0.926-0.623-1.877-0.757-2.852-0.403v0c-0.714 0.26-1.207 0.709-1.479 1.35-0.272 0.64-0.404 1.359-0.396 2.157 0.006 0.791 0.089 1.844 0.249 3.156v0c0.196 1.711 0.279 3.11 0.249 4.196-0.035 1.095-0.313 2.127-0.834 3.096-0.53 0.965-1.451 1.686-2.764 2.163v0c-1.09 0.396-2.195 0.462-3.315 0.199-1.123-0.27-2.166-0.916-3.129-1.937-0.969-1.019-1.776-2.414-2.42-4.185z" fill="#000000" data-fill-palette-color="primary"></path><path d="M10.684 185.85l18.401-6.27-2.458-7.212 2.61-0.889 5.922 17.38-2.61 0.889-2.454-7.202-18.4 6.27z" fill="#000000" data-fill-palette-color="primary"></path><path d="M22.205 211.637c-1.1-1.949-1.664-3.947-1.691-5.996-0.027-2.048 0.464-3.945 1.472-5.691 1.003-1.742 2.434-3.138 4.294-4.187v0c1.86-1.05 3.798-1.556 5.813-1.518 2.009 0.042 3.884 0.603 5.624 1.685 1.74 1.082 3.16 2.597 4.26 4.545v0c1.093 1.937 1.654 3.93 1.68 5.979 0.027 2.048-0.461 3.936-1.464 5.662-1 1.733-2.439 3.129-4.317 4.189v0c-1.878 1.06-3.817 1.571-5.817 1.532-1.997-0.033-3.865-0.591-5.605-1.672-1.74-1.082-3.156-2.591-4.249-4.528zM24.667 210.246c0.8 1.417 1.842 2.511 3.126 3.282 1.284 0.771 2.675 1.165 4.173 1.184 1.501 0.01 2.951-0.381 4.35-1.171v0c1.4-0.79 2.483-1.83 3.25-3.119 0.758-1.292 1.142-2.689 1.151-4.189 0.004-1.497-0.395-2.955-1.194-4.372v0c-0.8-1.417-1.845-2.517-3.136-3.3-1.3-0.785-2.699-1.187-4.197-1.205-1.504-0.015-2.956 0.372-4.355 1.162v0c-1.4 0.79-2.481 1.833-3.245 3.128-0.758 1.292-1.134 2.696-1.127 4.211 0.003 1.509 0.405 2.972 1.204 4.39z" fill="#000000" data-fill-palette-color="primary"></path><path d="M45.29 241.185l2.453-5.549-7.96-8.711-5.747 1.944-2.203-2.41 23.166-7.554 2.12 2.321-9.585 22.414zM42.401 226.035l6.464 7.074 4.796-10.873z" fill="#000000" data-fill-palette-color="primary"></path><path d="M53.54 248.587l13.15-17.881 7.54 5.545c1.89 1.39 3.292 2.998 4.206 4.823 0.914 1.825 1.277 3.713 1.088 5.662-0.188 1.95-0.927 3.801-2.216 5.555v0c-1.29 1.754-2.837 3.011-4.643 3.771-1.805 0.76-3.715 0.976-5.729 0.647-2.015-0.328-3.967-1.188-5.857-2.577v0zM57.73 248.246l4.826 3.55c1.448 1.065 2.928 1.72 4.44 1.965 1.512 0.245 2.937 0.081 4.276-0.492 1.348-0.574 2.511-1.525 3.487-2.853v0c0.976-1.328 1.538-2.72 1.684-4.178 0.148-1.449-0.12-2.858-0.804-4.229-0.684-1.37-1.75-2.588-3.198-3.652v0l-4.827-3.55z" fill="#000000" data-fill-palette-color="primary"></path><path d="M99.826 273.665c-2.103-0.704-3.847-1.806-5.233-3.307-1.379-1.499-2.278-3.226-2.696-5.183-0.411-1.954-0.275-3.954 0.41-5.998v0c0.684-2.045 1.779-3.724 3.284-5.037 1.511-1.311 3.275-2.147 5.291-2.509 2.016-0.362 4.076-0.191 6.179 0.513v0c1.646 0.551 3.059 1.331 4.237 2.34 1.18 1.003 2.068 2.208 2.662 3.616v0l-2.581 1.238c-1.025-2.195-2.72-3.689-5.087-4.48v0c-1.563-0.523-3.095-0.646-4.596-0.37-1.497 0.286-2.808 0.923-3.933 1.913-1.127 0.996-1.946 2.256-2.456 3.78v0c-0.51 1.524-0.615 3.023-0.315 4.496 0.303 1.467 0.967 2.762 1.993 3.886 1.032 1.125 2.33 1.949 3.893 2.472v0c2.341 0.783 4.596 0.605 6.765-0.536v0l1.316 2.543c-1.32 0.76-2.763 1.192-4.328 1.298-1.557 0.101-3.159-0.124-4.805-0.675z" fill="#000000" data-fill-palette-color="primary"></path><path d="M134.976 280l-3.43-0.444-3.865-7.374c-0.597-0.036-1.064-0.076-1.4-0.12v0l-5.438-0.704-0.868 6.698-3.147-0.408 2.852-22.012 8.585 1.113c2.852 0.37 5.01 1.34 6.475 2.911 1.457 1.577 2.031 3.559 1.722 5.946v0c-0.221 1.702-0.829 3.096-1.825 4.185-0.995 1.081-2.301 1.794-3.918 2.139v0zM126.536 269.377c1.991 0.258 3.566 0.025 4.727-0.7 1.161-0.725 1.844-1.884 2.051-3.478v0c0.206-1.587-0.161-2.876-1.099-3.866-0.939-0.983-2.404-1.604-4.395-1.862v0l-5.347-0.693-1.283 9.906z" fill="#000000" data-fill-palette-color="primary"></path><path d="M153.508 279.143c-2.948 0.222-5.308-0.447-7.078-2.008-1.77-1.567-2.774-3.93-3.012-7.087v0l-0.947-12.589 3.155-0.237 0.937 12.457c0.357 4.741 2.611 6.955 6.763 6.642v0c2.029-0.153 3.537-0.854 4.524-2.105 0.987-1.251 1.391-3.077 1.21-5.477v0l-0.937-12.457 3.063-0.23 0.947 12.588c0.239 3.178-0.4 5.668-1.917 7.469-1.517 1.801-3.753 2.812-6.708 3.034z" fill="#000000" data-fill-palette-color="primary"></path><path d="M182.52 249.573l3.037-0.922 6.445 21.24-2.492 0.756-17.548-11.971 4.806 15.837-3.038 0.922-6.444-21.24 2.492-0.756 17.547 11.971z" fill="#000000" data-fill-palette-color="primary"></path><path d="M210.925 259.943c-1.922 1.106-3.904 1.68-5.946 1.721-2.036 0.037-3.925-0.437-5.666-1.422-1.735-0.989-3.14-2.418-4.216-4.287v0c-1.076-1.869-1.605-3.802-1.589-5.799 0.022-2 0.567-3.875 1.634-5.624 1.067-1.749 2.562-3.176 4.483-4.282v0c1.505-0.866 3.025-1.405 4.563-1.617 1.534-0.218 3.024-0.082 4.471 0.408v0l-0.786 2.753c-2.322-0.69-4.565-0.413-6.727 0.832v0c-1.428 0.822-2.537 1.887-3.327 3.194-0.78 1.31-1.173 2.713-1.179 4.211-0.003 1.504 0.397 2.952 1.198 4.346v0c0.802 1.393 1.854 2.466 3.156 3.219 1.299 0.747 2.708 1.109 4.229 1.087 1.527-0.026 3.004-0.45 4.432-1.272v0c2.139-1.231 3.502-3.037 4.089-5.416v0l2.776 0.702c-0.307 1.491-0.941 2.858-1.902 4.099-0.958 1.232-2.189 2.281-3.693 3.147z" fill="#000000" data-fill-palette-color="primary"></path><path d="M222.553 222.659l2.388-2.091 14.623 16.698-2.388 2.091-6.52-7.446-9.589 8.397 6.521 7.447-2.388 2.091-14.623-16.699 2.387-2.091 6.287 7.179 9.589-8.398z" fill="#000000" data-fill-palette-color="primary"></path><path d="M246.536 228.89l-17.117-14.13 2.021-2.448 17.117 14.131z" fill="#000000" data-fill-palette-color="primary"></path><path d="M253.843 213.347l6.659-11.094 2.364 1.419-8.292 13.815-19.031-11.423 8.062-13.432 2.363 1.419-6.428 10.71 5.843 3.508 5.727-9.542 2.312 1.388-5.727 9.541z" fill="#000000" data-fill-palette-color="primary"></path><path d="M268.888 188.734c-0.57 1.568-1.363 2.994-2.378 4.277-1.021 1.281-2.069 2.199-3.144 2.753v0l-1.933-1.947c1.01-0.535 1.964-1.343 2.862-2.424 0.898-1.081 1.584-2.274 2.059-3.58v0c0.628-1.727 0.805-3.128 0.532-4.202-0.276-1.067-0.901-1.778-1.877-2.132v0c-0.714-0.26-1.38-0.235-1.997 0.075-0.615 0.303-1.168 0.752-1.658 1.345-0.486 0.603-1.106 1.474-1.86 2.614v0c-0.948 1.438-1.786 2.569-2.511 3.395-0.732 0.823-1.616 1.437-2.65 1.84-1.032 0.397-2.214 0.353-3.546-0.131v0c-1.109-0.403-2.006-1.061-2.691-1.974-0.679-0.911-1.07-2.059-1.172-3.446-0.102-1.386 0.168-2.962 0.809-4.728v0c0.45-1.236 1.05-2.393 1.803-3.468 0.752-1.076 1.58-1.933 2.482-2.572v0l2.033 1.853c-0.878 0.669-1.642 1.449-2.29 2.339-0.648 0.89-1.146 1.813-1.494 2.769v0c-0.614 1.689-0.768 3.065-0.462 4.129 0.31 1.072 0.953 1.786 1.928 2.141v0c0.714 0.26 1.381 0.231 2-0.085 0.62-0.316 1.183-0.782 1.689-1.399 0.503-0.611 1.116-1.471 1.836-2.58v0c0.948-1.438 1.783-2.563 2.504-3.375 0.73-0.817 1.606-1.429 2.628-1.838 1.025-0.399 2.195-0.36 3.507 0.117v0c1.09 0.396 1.98 1.055 2.669 1.977 0.687 0.928 1.072 2.093 1.155 3.494 0.089 1.403-0.189 2.991-0.833 4.763z" fill="#000000" data-fill-palette-color="primary"></path><path d="M3.372 142.483c0-4.737 3.84-8.577 8.577-8.576 4.737 0 8.577 3.84 8.576 8.576 0 4.737-3.84 8.577-8.576 8.577-4.737 0-8.577-3.84-8.577-8.577z" fill="#000000" data-fill-palette-color="primary"></path><path d="M259.721 142.483c0-4.737 3.84-8.577 8.577-8.576 4.737 0 8.577 3.84 8.576 8.576 0 4.737-3.84 8.577-8.576 8.577-4.737 0-8.577-3.84-8.577-8.577z" fill="#000000" data-fill-palette-color="primary"></path></g></svg></g></svg></g></svg></g><g></g></svg></g><defs></defs></svg><rect width="280" height="280" fill="none" stroke="none" visibility="hidden"></rect></g></svg></g></svg>